<?xml version="1.0" encoding="utf-8"?>
<!-- Generator: Adobe Illustrator 23.0.3, SVG Export Plug-In . SVG Version: 6.00 Build 0)  -->
<svg version="1.1" id="svg2" xmlns:svg="http://www.w3.org/2000/svg"
	 xmlns="http://www.w3.org/2000/svg" xmlns:xlink="http://www.w3.org/1999/xlink" x="0px" y="0px" viewBox="0 0 320 50"
	 style="enable-background:new 0 0 320 50;" xml:space="preserve">
<style type="text/css">
	.st0{fill-rule:evenodd;clip-rule:evenodd;fill:#64A104;}
	.st1{fill:#64A104;}
</style>
<g id="layer1" transform="translate(624.68116,-208.60372)">
	<g id="g4753" transform="matrix(1.018991,0,0,1.018991,47.296437,26.437118)">
		<g id="g2570" transform="matrix(8.3985946,0,0,-8.3985946,-279.77609,213.52424)">
			<path id="path2572" class="st0" d="M-32.9,4.2h4.1c0.6,0,1.2-0.4,1.2-1.5c0-1.3-1-1.3-1-1.3s1-0.2,1-1.2v-1.8h-1.4l0,1.7
				c0,0.5-0.3,0.7-0.7,0.7l-1.7,0v-2.5h-1.4V4.2z M-31.4,3.1V1.8h1.8c0.4,0,0.6,0.2,0.6,0.7c0,0.4-0.2,0.7-0.6,0.7H-31.4"/>
		</g>
		<g id="g2574" transform="matrix(8.3985946,0,0,-8.3985946,272.78424,213.52424)">
			<path id="path2576" class="st0" d="M-78.8,4.2h4.1c0.6,0,1.2-0.4,1.2-1.5c0-1.3-1-1.3-1-1.3s1-0.2,1-1.2v-1.8H-75l0,1.7
				c0,0.5-0.3,0.7-0.7,0.7l-1.7,0v-2.5h-1.4V4.2z M-77.4,3.1V1.8h1.8c0.4,0,0.6,0.2,0.6,0.7c0,0.4-0.2,0.7-0.6,0.7H-77.4"/>
		</g>
		<g id="g2578" transform="matrix(8.3985946,0,0,-8.3985946,112.23671,213.52424)">
			<path id="path2580" class="st1" d="M-65.5,4.2h4.6v-1h-3.2V1.8h3.2v-1h-3.2v-1.5h3.2v-1h-4.6V4.2"/>
		</g>
		<g id="g2582" transform="matrix(8.3985946,0,0,-8.3985946,-407.85466,213.56632)">
			<path id="path2584" class="st0" d="M-22.2,4.2l-2.3-5.9h1.4l0.5,1.5h2.3l0.5-1.5l1.5,0l-2.1,5.9L-22.2,4.2z M-22.2,0.8l0.8,2.3
				l0.8-2.3H-22.2"/>
		</g>
		<g id="g2586" transform="matrix(8.3985946,0,0,-8.3985946,80.590723,377.20445)">
			<path id="path2588" class="st1" d="M-62.8,17.8h-1.4l0,4.5h0l-1.3-4.5l-1.3,0l-1.2,4.5h0l0-4.5h-1.4v5.8h2.2l1.1-3.9h0l1.2,3.9
				h2.1L-62.8,17.8"/>
		</g>
		<g id="g2590" transform="matrix(8.3985946,0,0,-8.3985946,-624.24445,213.56632)">
			<path id="path2592" class="st0" d="M-4.2,4.2l4.2,0c0.6,0,1.1-0.7,1.1-1.4c0-1.3-0.9-1.4-0.9-1.4s0.9-0.1,0.9-1.5
				c0-1.1-0.8-1.6-1.3-1.6l-4,0V4.2z M-2.7,3.2V1.8l1.9,0c0.4,0,0.6,0.1,0.6,0.7c0,0.5-0.2,0.7-0.6,0.7L-2.7,3.2z M-2.7,0.8v-1.5
				l1.9,0c0.4,0,0.6,0.1,0.6,0.7c0,0.5-0.2,0.7-0.6,0.7L-2.7,0.8"/>
		</g>
	</g>
</g>
</svg>
